<svg id="Layer_1" data-name="Layer 1" xmlns="http://www.w3.org/2000/svg" viewBox="0 0 521.92 508.54"><title>Adobe Substance 3D logo - Brandlogos.net</title><path d="M215.46,129.73H552.54A92.4,92.4,0,0,1,645,222.09V545.9a92.38,92.38,0,0,1-92.41,92.37H215.46A92.38,92.38,0,0,1,123,545.91V222.09a92.39,92.39,0,0,1,92.43-92.36" transform="translate(-123.04 -129.73)" style="fill:#1e3101"/><path d="M550.42,342.23V303.29a46.3,46.3,0,0,0-26-41.63L403.83,203a46.31,46.31,0,0,0-40.52,0L242.76,261.66a46.31,46.31,0,0,0-26,40.9c0,.25,0,.5,0,.74v54.6a26.48,26.48,0,0,0,19.76,25.61L473,445.24a2.11,2.11,0,0,1,.37,4l-78.29,37.07a26.49,26.49,0,0,1-23,0L303.14,453a26.48,26.48,0,0,1-15-23.84v-4.25H216.72v38.68a46.31,46.31,0,0,0,26.18,41.71l120.55,58.15a46.28,46.28,0,0,0,40.23,0l120.55-58.15a46.29,46.29,0,0,0,26.12-39.4c0-.76.06-1.53.06-2.3v-53A26.48,26.48,0,0,0,530.66,385L292.8,322.54l.73.17a2.11,2.11,0,0,1-.4-3.94L372,280.17a26.49,26.49,0,0,1,23.17,0l68.93,33.55A26.47,26.47,0,0,1,479,337.52v4.72h71.45Z" transform="translate(-123.04 -129.73)" style="fill:#99e83f"/></svg>